<svg xmlns="http://www.w3.org/2000/svg" viewBox="0 0 408 191.9586"><path d="M210.4264,88.57q0,.59-.8276.59h-7.9209a.6371.6371,0,0,1-.5079-.2951,1.0806,1.0806,0,0,1-.2251-.6734V70.4113c0-.3159-.0472-.4729-.1418-.4729-.0322,0-.0795.03-.1419.0946h-.0473c-.1106,0-.26.2118-.4492.6374l-3.8777,6.4313a1.5992,1.5992,0,0,1-1.395.9212h-3.3339a1.6857,1.6857,0,0,1-1.4187-.9212l-3.9723-6.645c-.1418-.2838-.2525-.4237-.331-.4237h-.0473c-.0634-.0644-.1106-.0946-.1419-.0946-.1418,0-.2128.157-.2128.4729V88.1919a1.139,1.139,0,0,1-.2005.6961.5733.5733,0,0,1-.4615.2724H176.78q-.78,0-.78-.59v-33.6a1.6936,1.6936,0,0,1,.5438-1.2768,1.7619,1.7619,0,0,1,1.2532-.52h5.3673a2.7451,2.7451,0,0,1,2.4826,1.4659l7.0225,12.2479q.33.5675.52.5675.26,0,.5912-.5675l7.0224-12.2479a2.66,2.66,0,0,1,2.459-1.4659h5.3673a1.7765,1.7765,0,0,1,1.797,1.797Z" style="fill:#002f6c"/><path d="M246.1533,88.3811a.68.68,0,0,1-.7567.7793h-8.4411a.8893.8893,0,0,1-.6024-.2724,1.1435,1.1435,0,0,1-.367-.6507L234.6384,81.5h-8.63L224.66,88.2373c-.1107.6167-.4341.9231-.9694.9231h-8.37a.8256.8256,0,0,1-.5788-.2251.715.715,0,0,1-.2487-.5542c.0151-.0492.0274-.087.0349-.1192a.4612.4612,0,0,0,.0123-.1191l6.4786-29.6257a6.3122,6.3122,0,0,1,3.0738-4.5757,13.7465,13.7465,0,0,1,6.2422-1.1935,13.5943,13.5943,0,0,1,6.23,1.2068,6.2579,6.2579,0,0,1,3.0625,4.5624l6.4786,29.6257c.0151.0491.0274.087.0359.1191A.5168.5168,0,0,1,246.1533,88.3811ZM233.22,73.7669l-2.3644-12.2951a3.4546,3.4546,0,0,0-.1542-.5543c-.0388-.087-.1617-.13-.366-.13s-.331.0435-.3783.13a2.5085,2.5085,0,0,0-.1655.5543l-2.3645,12.2951Z" style="fill:#002f6c"/><path d="M279.4211,75.4939q0,8.0382-3.9836,11.0656t-10.676,3.0265q-6.6919,0-10.6637-3.0151-3.9723-3.0134-3.9723-11.077v-21.35a.9033.9033,0,0,1,.3188-.6752,1.01,1.01,0,0,1,.698-.2951h7.85a1.0642,1.0642,0,0,1,.9695.97v21.35a10.0261,10.0261,0,0,0,.4851,3.4994,3.19,3.19,0,0,0,1.536,1.7856,6.2,6.2,0,0,0,2.7787.5315,4.6966,4.6966,0,0,0,3.7245-1.2768q1.098-1.2768,1.099-4.54v-21.35a1.0642,1.0642,0,0,1,.9694-.97h7.85a1.0061,1.0061,0,0,1,.697.2951.8978.8978,0,0,1,.32.6752Z" style="fill:#002f6c"/><path d="M315.0534,88.4265q0,.7348-.8276.7339h-8.89a.6343.6343,0,0,1-.5325-.2251,4.6627,4.6627,0,0,1-.4369-.7434l-6.053-11.61-.3547-.2118q-.6157-.0255-1.1822-.036c-.3783-.0075-.82-.0132-1.3241-.0132V88.1919a.9017.9017,0,0,1-.3074.6848.962.962,0,0,1-.662.2837h-7.85a1.0544,1.0544,0,0,1-.698-.2724.8721.8721,0,0,1-.3187-.6961V56.531a4.6756,4.6756,0,0,1,.2714-1.7743,1.8347,1.8347,0,0,1,.8871-.9458,6.3384,6.3384,0,0,1,1.6552-.4956q1.654-.2355,4.6106-.4256t5.6038-.1891a25.8845,25.8845,0,0,1,8.11,1.11,10.0258,10.0258,0,0,1,5.1895,3.7378,11.6113,11.6113,0,0,1,1.8565,6.855v.7812a11.1033,11.1033,0,0,1-.8039,4.3865,9.6361,9.6361,0,0,1-2.1157,3.1551,9.9943,9.9943,0,0,1-2.9915,2.0108l7.0224,13.1709A1.172,1.172,0,0,1,315.0534,88.4265Zm-11.042-23.1943v-.8285q0-3.4275-4.8235-3.4275-.19,0-1.8916.0473t-1.8442.0472v7.7082q.2355.0482,3.523.0472a6.3826,6.3826,0,0,0,3.8664-.91A3.1956,3.1956,0,0,0,304.0114,65.2322Z" style="fill:#002f6c"/><path d="M329.7839,88.1919a.9017.9017,0,0,1-.3074.6848.962.962,0,0,1-.662.2837H320.87a.96.96,0,0,1-.662-.2837.8983.8983,0,0,1-.3074-.6848V54.0947a.85.85,0,0,1,.296-.6488.9647.9647,0,0,1,.6734-.2724h7.9446a.9661.9661,0,0,1,.6734.2724.85.85,0,0,1,.296.6488Z" style="fill:#002f6c"/><path d="M357.9682,87.67a.8579.8579,0,0,1-.2015.628,2.5226,2.5226,0,0,1-.8625.4369,14.92,14.92,0,0,1-2.9206.6034,30.3868,30.3868,0,0,1-3.8654.2478,17.2158,17.2158,0,0,1-7.9209-1.7024,11.7394,11.7394,0,0,1-5.1659-5.2718,19.47,19.47,0,0,1-1.8329-8.9395v-4.988a19.5283,19.5283,0,0,1,1.8329-8.949,11.6761,11.6761,0,0,1,5.2018-5.285,17.2652,17.2652,0,0,1,7.885-1.7024,28.3236,28.3236,0,0,1,4.0432.261,14.008,14.008,0,0,1,2.7428.6129,2.2611,2.2611,0,0,1,.8512.3915.8955.8955,0,0,1,.2128.6734v6.1949q0,.922-.8749.9231h-.1418q-1.3251-.1419-2.3531-.2384-1.0272-.0936-2.0448-.1532-1.0172-.0567-2.3881-.0586a4.5724,4.5724,0,0,0-3.6536,1.5492q-1.3349,1.5492-1.3354,5.7806v4.988q0,4.1623,1.3354,5.7352a4.5419,4.5419,0,0,0,3.6536,1.5719,66.5368,66.5368,0,0,0,6.786-.4483h.1418q.8739,0,.8749.9212Z" style="fill:#002f6c"/><path d="M372.8406,88.1919a.9017.9017,0,0,1-.3074.6848.9621.9621,0,0,1-.6621.2837h-7.9445a.96.96,0,0,1-.6621-.2837.8985.8985,0,0,1-.3073-.6848V54.0947a.85.85,0,0,1,.296-.6488.9645.9645,0,0,1,.6734-.2724h7.9445a.9661.9661,0,0,1,.6734.2724.85.85,0,0,1,.2961.6488Z" style="fill:#002f6c"/><path d="M408,73.6723q0,8.3248-4.1378,12.1193a17.0818,17.0818,0,0,1-21.4693,0q-4.1382-3.7964-4.1377-12.1193v-4.988a21.0692,21.0692,0,0,1,1.1585-7.3771,12.7551,12.7551,0,0,1,3.2157-5.0013,12.4843,12.4843,0,0,1,4.7053-2.7541,18.8375,18.8375,0,0,1,5.7929-.8512,17.3323,17.3323,0,0,1,7.6012,1.5964,11.8923,11.8923,0,0,1,5.2964,5.1772A18.9708,18.9708,0,0,1,408,68.6843Zm-9.978,0v-4.988q0-3.8532-1.1822-5.5915a4.1712,4.1712,0,0,0-3.7122-1.7383,4.7275,4.7275,0,0,0-2.7664.7566,4.4071,4.4071,0,0,0-1.6079,2.3644,13.9984,13.9984,0,0,0-.52,4.2088v4.988a14.0455,14.0455,0,0,0,.5089,4.1861,4.2538,4.2538,0,0,0,1.6078,2.3285,4.8367,4.8367,0,0,0,2.7778.7452,4.1854,4.1854,0,0,0,3.7235-1.7137Q398.0229,77.5047,398.022,73.6723Z" style="fill:#002f6c"/><path d="M329.5538,51.3678l2.6983-5.14a.829.829,0,0,0-.7058-1.2638h-7.0544a.8291.8291,0,0,0-.7059.3943l-2.6983,5.14a.829.829,0,0,0,.7058,1.2638h7.0544A.8291.8291,0,0,0,329.5538,51.3678Z" style="fill:#002f6c"/><path d="M198.9115,129.68q0,.8286-.9694.97-1.8926.2355-4.3629.4029-2.47.1646-5.1895.1646a21.5623,21.5623,0,0,1-6.2771-.8266,8.2956,8.2956,0,0,1-4.41-3.2043Q176,124.81,176,120.3891V105.1847a11.5831,11.5831,0,0,1,1.7024-6.7737A8.3206,8.3206,0,0,1,182.1,95.1727a21.1967,21.1967,0,0,1,6.2894-.84q3.3339,0,5.4979.1646,2.162.1674,4.0545.4029c.646.1267.9694.4483.9694.97V101.78a.9024.9024,0,0,1-.3073.6866.962.962,0,0,1-.6621.2838h-9.7888a2.5349,2.5349,0,0,0-1.8093.5088,2.7405,2.7405,0,0,0-.5079,1.9256v3.524h11.8932a.9686.9686,0,0,1,.9694.97v5.72a.9686.9686,0,0,1-.9694.97H185.8361v4.02a2.6991,2.6991,0,0,0,.5079,1.9029,2.5259,2.5259,0,0,0,1.8093.5088h9.7888a1.0642,1.0642,0,0,1,.9694.97Z" style="fill:#002f6c"/><path d="M234.0473,130.0588q0,.7349-.8275.7339h-8.89a.6344.6344,0,0,1-.5324-.2251,4.6691,4.6691,0,0,1-.437-.7434l-6.053-11.61-.3547-.2119q-.6156-.0255-1.1822-.0359c-.3783-.0076-.82-.0132-1.3241-.0132v11.8714a.9018.9018,0,0,1-.3074.6848.962.962,0,0,1-.662.2837h-7.85a1.0547,1.0547,0,0,1-.698-.2724.8725.8725,0,0,1-.3187-.6961V98.1632a4.6756,4.6756,0,0,1,.2714-1.7743,1.8339,1.8339,0,0,1,.8872-.9457,6.3324,6.3324,0,0,1,1.6551-.4956q1.6542-.2355,4.6107-.4256t5.6037-.1892a25.8842,25.8842,0,0,1,8.11,1.11,10.0247,10.0247,0,0,1,5.19,3.7377,11.6113,11.6113,0,0,1,1.8566,6.855v.7812a11.1035,11.1035,0,0,1-.8039,4.3866,9.6364,9.6364,0,0,1-2.1158,3.1551,9.99,9.99,0,0,1-2.9915,2.0107l7.0225,13.171A1.1727,1.1727,0,0,1,234.0473,130.0588Zm-11.042-23.1944v-.8285q0-3.4275-4.8235-3.4275-.19,0-1.8915.0473t-1.8443.0473v7.7081q.2355.0481,3.523.0473a6.3823,6.3823,0,0,0,3.8664-.91A3.1956,3.1956,0,0,0,223.0053,106.8644Z" style="fill:#002f6c"/><path d="M268.7339,128.9957a1.7581,1.7581,0,0,1-.52,1.2522,1.6976,1.6976,0,0,1-1.2768.5448h-6.5023a2.2823,2.2823,0,0,1-2.0334-1.3014l-9.5287-16.2183q-.2129-.4029-.4729-.4029c-.1741,0-.26.15-.26.4483v16.5058a.918.918,0,0,1-.2838.6961.9544.9544,0,0,1-.6856.2724h-7.2589a1.0545,1.0545,0,0,1-.698-.2724.8722.8722,0,0,1-.3187-.6961V96.6027a1.6936,1.6936,0,0,1,.5438-1.2768,1.7619,1.7619,0,0,1,1.2531-.52h6.3841a2.224,2.224,0,0,1,1.9388,1.4187l9.8362,16.693c.157.2989.2988.45.4256.45.173,0,.26-.1513.26-.45V95.7761a.9567.9567,0,0,1,.2838-.6621.8951.8951,0,0,1,.6857-.3083h7.2588a1.0642,1.0642,0,0,1,.9695.97Z" style="fill:#002f6c"/><path d="M297.6511,129.68q0,.8286-.9694.97-1.8925.2355-4.3629.4029-2.47.1646-5.19.1646a21.5623,21.5623,0,0,1-6.2771-.8266,8.2956,8.2956,0,0,1-4.41-3.2043q-1.7024-2.3778-1.7024-6.7983V105.1847a11.5831,11.5831,0,0,1,1.7024-6.7737,8.3206,8.3206,0,0,1,4.3979-3.2383,21.1967,21.1967,0,0,1,6.2894-.84q3.3339,0,5.4979.1646,2.1619.1674,4.0545.4029c.646.1267.9694.4483.9694.97V101.78a.9024.9024,0,0,1-.3073.6866.962.962,0,0,1-.6621.2838h-9.7888a2.5349,2.5349,0,0,0-1.8093.5088,2.7405,2.7405,0,0,0-.5079,1.9256v3.524h11.8932a.9686.9686,0,0,1,.9694.97v5.72a.9686.9686,0,0,1-.9694.97H284.5757v4.02a2.6991,2.6991,0,0,0,.5079,1.9029,2.5259,2.5259,0,0,0,1.8093.5088h9.7888a1.0642,1.0642,0,0,1,.9694.97Z" style="fill:#002f6c"/><path d="M327.7034,120.1281a11.38,11.38,0,0,1-.7444,4.0668,9.7829,9.7829,0,0,1-2.4117,3.5713,11.65,11.65,0,0,1-4.3033,2.5309,18.9576,18.9576,0,0,1-6.2308.9212,35.651,35.651,0,0,1-9.7889-1.2541q-1.0172-.3065-1.0167-.9685v-5.9584a.9478.9478,0,0,1,.2715-.698.8929.8929,0,0,1,.6507-.27h.0945q6.9984.732,9.8362.732a3.5458,3.5458,0,0,0,2.3644-.6147,2.3541,2.3541,0,0,0,.6857-1.8443,1.8,1.8,0,0,0-.4852-1.2768,8.6992,8.6992,0,0,0-1.8083-1.3014l-6.9515-4.1123a11.6422,11.6422,0,0,1-4.4811-4.2692,11.1975,11.1975,0,0,1-1.2882-5.4269,10.7425,10.7425,0,0,1,.6507-3.7945,7.6484,7.6484,0,0,1,2.1157-3.0492,10.1515,10.1515,0,0,1,3.9014-2.0467,21.1335,21.1335,0,0,1,6.0057-.732q1.8669,0,3.9836.1646,2.1166.1674,3.9969.4388a23.196,23.196,0,0,1,3.0142.6015q.8739.2838.8749.9231v6.053a.95.95,0,0,1-.2365.6621.82.82,0,0,1-.6384.261H325.67q-1.254-.0964-3.1088-.25-1.857-.1532-3.9372-.2724-2.0813-.1162-3.9487-.1173-2.4117,0-2.4117,1.6552a1.5474,1.5474,0,0,0,.4729,1.1349,10.0818,10.0818,0,0,0,2.0334,1.3241l6.55,3.4994a12.3218,12.3218,0,0,1,4.8945,4.1974A10.2477,10.2477,0,0,1,327.7034,120.1281Z" style="fill:#002f6c"/><path d="M357.1881,101.9236a.8337.8337,0,0,1-.3074.6621,1.0727,1.0727,0,0,1-.7093.2591H348.96v26.9794a.9183.9183,0,0,1-.2837.6961.9548.9548,0,0,1-.6857.2724h-7.8973a.96.96,0,0,1-.662-.2837.8984.8984,0,0,1-.3074-.6848V102.8448H331.77a.9649.9649,0,0,1-.6734-.2723.848.848,0,0,1-.296-.6489V95.7269a.8506.8506,0,0,1,.296-.6488.9645.9645,0,0,1,.6734-.2724h24.4012a1.0727,1.0727,0,0,1,.7093.2591.834.834,0,0,1,.3074.6621Z" style="fill:#002f6c"/><path d="M389.1792,115.3046q0,8.3247-4.1378,12.1192a17.0814,17.0814,0,0,1-21.4693,0q-4.1382-3.7964-4.1378-12.1192v-4.9881a21.069,21.069,0,0,1,1.1586-7.3771,12.7558,12.7558,0,0,1,3.2157-5.0013,12.4873,12.4873,0,0,1,4.7052-2.7541,18.8386,18.8386,0,0,1,5.793-.8512,17.3309,17.3309,0,0,1,7.6012,1.5965,11.8913,11.8913,0,0,1,5.2964,5.1772,18.97,18.97,0,0,1,1.9748,9.21Zm-9.978,0v-4.9881q0-3.8531-1.1823-5.5914a4.1707,4.1707,0,0,0-3.7121-1.7384,4.7286,4.7286,0,0,0-2.7665.7566,4.4082,4.4082,0,0,0-1.6078,2.3645,13.9972,13.9972,0,0,0-.52,4.2087v4.9881a14.0452,14.0452,0,0,0,.5089,4.186,4.2534,4.2534,0,0,0,1.6078,2.3285,4.8358,4.8358,0,0,0,2.7778.7453,4.1855,4.1855,0,0,0,3.7235-1.7138Q379.2021,119.1369,379.2012,115.3046Z" style="fill:#002f6c"/><path d="M176,142.0637a4.107,4.107,0,1,1,4.1,3.8755A3.8781,3.8781,0,0,1,176,142.0637Zm6.4452,0a2.3453,2.3453,0,1,0-2.345,2.3982A2.2862,2.2862,0,0,0,182.4452,142.0637Z" style="fill:#41b6e6"/><path d="M192.4214,145.8109l-1.4455-2.0879h-1.5951v2.0879h-1.7344v-7.4944h3.244c2.0019,0,3.2549,1.0387,3.2549,2.7194a2.4364,2.4364,0,0,1-1.5419,2.3659l1.6806,2.4091Zm-1.6275-6.0812h-1.4131v2.6124h1.4131c1.06,0,1.5952-.4927,1.5952-1.3062C192.3891,140.2115,191.854,139.73,190.7939,139.73Z" style="fill:#41b6e6"/><path d="M199.1,139.73h-2.3981v-1.4132h6.5307V139.73h-2.3982v6.0812H199.1Z" style="fill:#41b6e6"/><path d="M205.7266,142.0637a4.107,4.107,0,1,1,4.1,3.8755A3.8781,3.8781,0,0,1,205.7266,142.0637Zm6.4452,0a2.3453,2.3453,0,1,0-2.345,2.3982A2.2862,2.2862,0,0,0,212.1718,142.0637Z" style="fill:#41b6e6"/><path d="M223.8719,141.0359c0,1.67-1.2531,2.7085-3.2549,2.7085h-1.51v2.0665H217.373v-7.4944h3.244C222.6188,138.3165,223.8719,139.3552,223.8719,141.0359Zm-1.7563,0c0-.8244-.535-1.3062-1.5951-1.3062h-1.4132v2.6015h1.4132C221.5806,142.3312,222.1156,141.8494,222.1156,141.0359Z" style="fill:#41b6e6"/><path d="M233.0455,144.4191v1.3918h-5.8028v-7.4944h5.6636v1.3918h-3.94v1.6274h3.4792v1.349h-3.4792v1.7344Z" style="fill:#41b6e6"/><path d="M236.5665,138.3165h3.4046c2.4519,0,4.1325,1.4773,4.1325,3.7472s-1.6806,3.7472-4.1325,3.7472h-3.4046Zm3.3191,6.07a2.327,2.327,0,1,0,0-4.6462h-1.5847v4.6462Z" style="fill:#41b6e6"/><path d="M247.5491,138.3165h1.7343v7.4944h-1.7343Z" style="fill:#41b6e6"/><path d="M258.1368,144.2048h-3.48l-.6638,1.6061h-1.7771l3.34-7.4944h1.713l3.3509,7.4944h-1.82Zm-.546-1.3167-1.1884-2.8691-1.1884,2.8691Z" style="fill:#41b6e6"/><path d="M274.5145,144.4191v1.3918h-5.8028v-7.4944h5.6635v1.3918h-3.94v1.6274h3.4792v1.349h-3.4792v1.7344Z" style="fill:#41b6e6"/><path d="M284.7582,139.73H282.36v-1.4132h6.5307V139.73h-2.3982v6.0812h-1.7343Z" style="fill:#41b6e6"/><path d="M296.7367,145.8109l-1.4455-2.0879h-1.5951v2.0879h-1.7344v-7.4944h3.244c2.0019,0,3.2549,1.0387,3.2549,2.7194a2.4363,2.4363,0,0,1-1.5419,2.3659l1.6807,2.4091Zm-1.6274-6.0812h-1.4132v2.6124h1.4132c1.06,0,1.5951-.4927,1.5951-1.3062C296.7044,140.2115,296.1694,139.73,295.1093,139.73Z" style="fill:#41b6e6"/><path d="M306.9063,144.2048h-3.48l-.6638,1.6061h-1.7771l3.34-7.4944h1.713l3.3509,7.4944h-1.82Zm-.546-1.3167-1.1884-2.8691-1.1884,2.8691Z" style="fill:#41b6e6"/><path d="M312.0866,142.5132v-4.1967h1.7343v4.1325c0,1.4241.6211,2.0129,1.67,2.0129,1.06,0,1.67-.5888,1.67-2.0129v-4.1325h1.713v4.1967a3.3941,3.3941,0,1,1-6.7878,0Z" style="fill:#41b6e6"/><path d="M329.5467,145.8109l-.011-4.4966-2.2052,3.7045h-.7817l-2.1948-3.608v4.4h-1.6274v-7.4944h1.4345l2.8049,4.6571,2.7627-4.6571h1.4236l.0214,7.4944Z" style="fill:#41b6e6"/><path d="M340.0261,144.2048h-3.48l-.6638,1.6061h-1.7771l3.34-7.4944h1.713l3.3509,7.4944h-1.82Zm-.546-1.3167-1.1884-2.8691-1.1884,2.8691Z" style="fill:#41b6e6"/><path d="M346.6086,139.73H344.21v-1.4132h6.5307V139.73H348.343v6.0812h-1.7344Z" style="fill:#41b6e6"/><path d="M353.2348,142.0637a4.107,4.107,0,1,1,4.1,3.8755A3.8782,3.8782,0,0,1,353.2348,142.0637Zm6.4452,0a2.3453,2.3453,0,1,0-2.3449,2.3982A2.2861,2.2861,0,0,0,359.68,142.0637Z" style="fill:#41b6e6"/><path d="M364.8812,138.3165h1.7344v6.0812h3.7581v1.4132h-5.4925Z" style="fill:#41b6e6"/><path d="M372.8883,142.0637a4.107,4.107,0,1,1,4.1,3.8755A3.8781,3.8781,0,0,1,372.8883,142.0637Zm6.4452,0a2.3453,2.3453,0,1,0-2.345,2.3982A2.2862,2.2862,0,0,0,379.3335,142.0637Z" style="fill:#41b6e6"/><path d="M389.5986,141.9458h1.5847v3.0407a5.1712,5.1712,0,0,1-3.03.9527,3.882,3.882,0,1,1,.0318-7.751,3.9948,3.9948,0,0,1,3.1371,1.2953l-1.1133,1.0278a2.5362,2.5362,0,0,0-1.9382-.8458,2.3986,2.3986,0,1,0-.0214,4.7964,2.7513,2.7513,0,0,0,1.349-.3212Z" style="fill:#41b6e6"/><path d="M394.929,138.3165h1.7344v7.4944H394.929Z" style="fill:#41b6e6"/><path d="M405.5163,144.2048h-3.48l-.6638,1.6061h-1.7771l3.34-7.4944h1.713L408,145.8109h-1.82Zm-.546-1.3167-1.1884-2.8691-1.1884,2.8691Z" style="fill:#41b6e6"/><path d="M176,156.0885a4.1268,4.1268,0,0,1,7.1518-2.5478l-1.1138,1.0278a2.4105,2.4105,0,0,0-1.8841-.8781,2.3982,2.3982,0,1,0,0,4.7963,2.3883,2.3883,0,0,0,1.8841-.8885l1.1138,1.0277A4.12,4.12,0,0,1,176,156.0885Z" style="fill:#41b6e6"/><path d="M186.458,152.3414h1.7344v7.4943H186.458Z" style="fill:#41b6e6"/><path d="M196.8851,159.8357l-1.4455-2.0879h-1.5951v2.0879H192.11v-7.4943h3.244c2.0019,0,3.2549,1.0387,3.2549,2.7193a2.4362,2.4362,0,0,1-1.5419,2.3659l1.6807,2.4091Zm-1.6275-6.0812h-1.4131v2.6125h1.4131c1.06,0,1.5952-.4928,1.5952-1.3063C196.8528,154.2363,196.3178,153.7545,195.2576,153.7545Z" style="fill:#41b6e6"/><path d="M202.0545,156.538v-4.1966h1.7343v4.1325c0,1.4241.6211,2.0128,1.67,2.0128,1.06,0,1.67-.5887,1.67-2.0128v-4.1325h1.713v4.1966a3.3941,3.3941,0,1,1-6.7878,0Z" style="fill:#41b6e6"/><path d="M217.47,159.8357l-1.4455-2.0879h-1.5951v2.0879h-1.7344v-7.4943h3.244c2.0019,0,3.2549,1.0387,3.2549,2.7193a2.4362,2.4362,0,0,1-1.5419,2.3659l1.6807,2.4091Zm-1.6274-6.0812h-1.4132v2.6125h1.4132c1.06,0,1.5951-.4928,1.5951-1.3063C217.4376,154.2363,216.9026,153.7545,215.8425,153.7545Z" style="fill:#41b6e6"/><path d="M227.7673,155.9707h1.5847v3.0406a5.17,5.17,0,0,1-3.03.9527,3.8819,3.8819,0,1,1,.0319-7.7509,3.9946,3.9946,0,0,1,3.137,1.2953l-1.1133,1.0278a2.536,2.536,0,0,0-1.9382-.8458,2.3985,2.3985,0,1,0-.0214,4.7963,2.75,2.75,0,0,0,1.349-.3212Z" style="fill:#41b6e6"/><path d="M233.0978,152.3414h1.7343v7.4943h-1.7343Z" style="fill:#41b6e6"/><path d="M243.685,158.23h-3.48l-.6638,1.606h-1.7771l3.34-7.4943h1.713l3.3509,7.4943h-1.82Zm-.546-1.3167-1.1884-2.8691-1.1884,2.8691Z" style="fill:#41b6e6"/><path d="M254.26,152.3414h3.4046c2.4518,0,4.1325,1.4773,4.1325,3.7471s-1.6807,3.7472-4.1325,3.7472H254.26Zm3.319,6.07a2.327,2.327,0,1,0,0-4.6462h-1.5847v4.6462Z" style="fill:#41b6e6"/><path d="M264.7721,156.0885a4.107,4.107,0,1,1,4.1,3.8755A3.8781,3.8781,0,0,1,264.7721,156.0885Zm6.4452,0a2.3453,2.3453,0,1,0-2.345,2.3982A2.2861,2.2861,0,0,0,271.2173,156.0885Z" style="fill:#41b6e6"/><path d="M280.5292,158.8721l.9631-1.1561a1.7222,1.7222,0,0,0,1.3918.8244c.6961,0,1.06-.4177,1.06-1.2421v-3.5652H281.31v-1.3917h4.3573v4.8605c0,1.8522-.9313,2.7621-2.6975,2.7621A3.0138,3.0138,0,0,1,280.5292,158.8721Z" style="fill:#41b6e6"/><path d="M289.05,156.0885a4.107,4.107,0,1,1,4.1,3.8755A3.8781,3.8781,0,0,1,289.05,156.0885Zm6.4452,0a2.3453,2.3453,0,1,0-2.345,2.3982A2.2861,2.2861,0,0,0,295.4951,156.0885Z" style="fill:#41b6e6"/><path d="M306.4991,158.444v1.3917h-5.8028v-7.4943H306.36v1.3917h-3.94v1.6275h3.4792v1.349H302.42v1.7344Z" style="fill:#41b6e6"/><path d="M310.02,152.3414h1.7343v6.0812h3.7582v1.4131H310.02Z" style="fill:#41b6e6"/><path d="M325.5,152.3414v7.4943h-1.7344v-3.0724h-3.4046v3.0724h-1.7344v-7.4943h1.7344v2.955h3.4046v-2.955Z" style="fill:#41b6e6"/><path d="M328.9456,156.0885a4.107,4.107,0,1,1,4.1,3.8755A3.8781,3.8781,0,0,1,328.9456,156.0885Zm6.4452,0a2.3453,2.3453,0,1,0-2.345,2.3982A2.2861,2.2861,0,0,0,335.3908,156.0885Z" style="fill:#41b6e6"/><path d="M188.7042,41.42a9.2,9.2,0,0,1-.487,3.1343,5.6489,5.6489,0,0,1-1.4081,2.2183,5.7344,5.7344,0,0,1-2.2071,1.2918,9.4987,9.4987,0,0,1-2.9381.4183,29.9944,29.9944,0,0,1-4.9652-.36,1.0161,1.0161,0,0,1-.545-.2542A.8846.8846,0,0,1,176,47.2754V33.1817a.8846.8846,0,0,1,.1588-.6035.99.99,0,0,1,.54-.2436,28.5863,28.5863,0,0,1,4.9652-.3706,8.6209,8.6209,0,0,1,3.7528.7571,5.3019,5.3019,0,0,1,2.435,2.3507,8.335,8.335,0,0,1,.8525,3.9655Zm-4.4465,0V39.0373a6.9319,6.9319,0,0,0-.1588-1.62,2.3487,2.3487,0,0,0-.4764-1.0059,1.7947,1.7947,0,0,0-.794-.5189,3.7166,3.7166,0,0,0-1.1646-.1588q-.4026,0-.6775.0053t-.5611.0159v8.9581q.1479.0213,1.2386.0212a3.8286,3.8286,0,0,0,1.1646-.1536,1.7354,1.7354,0,0,0,.794-.5188,2.3971,2.3971,0,0,0,.4764-1.0218A7.0128,7.0128,0,0,0,184.2577,41.42Zm20.0091,6.5438q0,.3285-.3706.3283h-3.9806a.2857.2857,0,0,1-.2384-.1006,2.0837,2.0837,0,0,1-.1957-.3336l-2.71-5.199-.1588-.0953c-.1838-.007-.36-.0123-.5293-.0159s-.3672-.0053-.5929-.0053v5.3155a.4036.4036,0,0,1-.1376.3071.4308.4308,0,0,1-.2964.1271h-3.5149a.4721.4721,0,0,1-.3125-.1218.393.393,0,0,1-.1427-.3124V33.6794a2.09,2.09,0,0,1,.1215-.7942.8166.8166,0,0,1,.3973-.4235,2.8192,2.8192,0,0,1,.741-.2224q.7407-.1058,2.0645-.1906t2.509-.0847a11.5753,11.5753,0,0,1,3.6313.4977,4.49,4.49,0,0,1,2.3236,1.673,5.2046,5.2046,0,0,1,.8313,3.0708v.3494a4.9688,4.9688,0,0,1-.36,1.9642,4.3133,4.3133,0,0,1-.9473,1.4136,4.4739,4.4739,0,0,1-1.3394.9l3.1443,5.898A.5279.5279,0,0,1,204.2668,47.9636Zm-4.9441-10.3875v-.3706q0-1.5354-2.16-1.5354-.0851,0-.8469.0212t-.8258.0211v3.452q.1055.0213,1.5775.0212a2.857,2.857,0,0,0,1.7311-.4077A1.43,1.43,0,0,0,199.3227,37.5761ZM210.206,47.8577a.393.393,0,0,1-.1427.3124.4729.4729,0,0,1-.3125.1218h-3.1337A.49.49,0,0,1,206.3,48.17a.3853.3853,0,0,1-.1483-.3124V44.84a.3956.3956,0,0,1,.1483-.3017.47.47,0,0,1,.3176-.1324h3.1337a.4535.4535,0,0,1,.3125.1324.4035.4035,0,0,1,.1427.3017Z" style="fill:#41b6e6"/><path d="M36.2542,110.8541c.1118-5.3263,1.1643-9.3526,3.1309-11.9845,2.422-3.0322,1.7227-7.2758.0322-10.4906a19.6052,19.6052,0,0,1-2.2918-7.405c-2.6869.5915-6.1379,5.1593-6.5922,10.8374C29.9046,99.6708,33.3042,109.5116,36.2542,110.8541Z" style="fill:#fff"/><path d="M78.857,139.4211c.6984-6.4615,2.0791-9.7879-2.8884-9.3263-16.5741.2048-4.3075,46.8689-4.5057,61.5648l-.0008.0178q2.5461-.1958,5.0533-.525l.01-.019C75.5488,163.3563,77.7,147.7946,78.857,139.4211Z" style="fill:#fff"/><path d="M100.7479,7.3011C77.16,43.2105,59.318,64.8734,47.717,71.6876c-3.9675,2.331-5.4618,6.23-4.2075,10.979,2.191,8.2988,12.4013,17.3709,25.0763,17.5584,3.53.0211,9.4528-.5493,13.57-5.2635,3.2868-3.8415,4.3678-9.53,3.2128-16.9069-1.0171-6.4967,9.1556-27.6916,30.2346-63.0021l0,0,.0436-.0244a95.7237,95.7237,0,0,0-14.8682-7.76l-.03.0339Z" style="fill:#fff"/><path d="M46.5148,190.3738a96.5127,96.5127,0,0,0,16.9042,1.58c-.8791-19.86-9.5653-55.6619,1.311-66.7493a14.8478,14.8478,0,0,1,10.7466-5.08,12.0893,12.0893,0,0,1,7.5365,1.6181,5.0072,5.0072,0,0,0,1.4194-1.5525c4.3531-7.5554,4.281-13.2813-3.9143-13.54-3.87.2322-7.38,1.85-11.5273,1.6122a35.99,35.99,0,0,1-21.4134-7.1856c-5.5863-3.1139-8.1345,7.399-4.8281,24.1714C45.6476,140.4036,46.2639,165.5112,46.5148,190.3738Z" style="fill:#fff"/><path d="M145.8089,45.7153A95.4665,95.4665,0,0,0,115.5931,15.07C94.5213,50.37,84.352,71.559,85.3689,78.0546c1.155,7.3771.0741,13.0655-3.2128,16.9069-4.1175,4.7142-10.04,5.2846-13.57,5.2635-12.675-.1875-22.8853-9.26-25.0763-17.5584-1.2543-4.7489.24-8.648,4.2076-10.9791,11.6-6.8138,29.4415-28.475,53.0274-64.3813A93.99,93.99,0,0,0,66.6,0c-8.0341,20.3616-14.6777,40.2009-36.039,71.0846-20.8152,30.0944,2.3483,52.1157,4.85,76.6239.9178,8.9954,2.2913,24.7062,3.6209,40.9689q3.7068,1.01,7.4866,1.7038l-.0033-.0074c-.2509-24.8626-.8672-49.97-3.7654-65.1268-3.3064-16.7724-.7582-27.2853,4.8281-24.1714a35.99,35.99,0,0,0,21.4134,7.1856c4.1468.2383,7.6576-1.38,11.5273-1.6122,8.1953.2591,8.2674,5.985,3.9143,13.54a5.0072,5.0072,0,0,1-1.4194,1.5525,12.0893,12.0893,0,0,0-7.5365-1.6181,14.8478,14.8478,0,0,0-10.7466,5.08c-10.8763,11.0874-2.19,46.8894-1.311,66.7493l-.0011.0044q4.0262.0173,8.045-.3035c.1953-14.7016-12.0665-61.3548,4.5057-61.56,4.9675-.4616,3.5868,2.8648,2.8884,9.3263-1.1572,8.3724-3.3076,23.9313-2.3321,51.7014a94.9,94.9,0,0,0,38.6281-13.9141C111.5378,107.3861,58.2943,86.7586,145.8089,45.7153ZM39.3851,98.87c-1.9666,2.632-3.0191,6.6583-3.1309,11.9846-2.95-1.3425-6.35-11.1833-5.7209-19.0428.4543-5.678,3.9053-10.2458,6.5922-10.8373a19.607,19.607,0,0,0,2.2918,7.405C41.1078,91.5938,41.8071,95.8374,39.3851,98.87Z" style="fill:#002f6c"/><path d="M108.8352,141.6189a63.9511,63.9511,0,0,0,8.9341-80.3468C81.9933,86.0211,98.28,105.76,108.8352,141.6189Z" style="fill:#41b6e6"/><path d="M35.4106,147.7085c-2.5015-24.5082-25.665-46.5295-4.85-76.6239A270.7274,270.7274,0,0,0,52.9414,32.9357,64,64,0,0,0,35.9788,153.5123C35.7753,151.3648,35.5847,149.4148,35.4106,147.7085Z" style="fill:#41b6e6"/></svg>
